HIERARCHY
ROOT hip
{
  OFFSET 0 0 0
  CHANNELS 6 Xposition Yposition Zposition Zrotation Yrotation Xrotation
  JOINT abdomen
  {
    OFFSET 0 20.6881 -0.73152
    CHANNELS 3 Zrotation Xrotation Yrotation
    JOINT chest
    {
      OFFSET 0 11.7043 -0.48768
      CHANNELS 3 Zrotation Xrotation Yrotation
      JOINT neck
      {
        OFFSET 0 22.1894 -2.19456
        CHANNELS 3 Zrotation Xrotation Yrotation
        JOINT head
        {
          OFFSET -0.24384 7.07133 1.2192
          CHANNELS 3 Zrotation Xrotation Yrotation
          JOINT leftEye
          {
            OFFSET 4.14528 8.04674 8.04672
            CHANNELS 3 Zrotation Xrotation Yrotation
            End Site
            {
              OFFSET 1 0 0
            }
          }
          JOINT rightEye
          {
            OFFSET -3.6576 8.04674 8.04672
            CHANNELS 3 Zrotation Xrotation Yrotation
            End Site
            {
              OFFSET 1 0 0
            }
          }
        }
      }
      JOINT rCollar
      {
        OFFSET -2.68224 19.2634 -4.8768
        CHANNELS 3 Zrotation Xrotation Yrotation
        JOINT rShldr
        {
          OFFSET -8.77824 -1.95073 1.46304
          CHANNELS 3 Zrotation Xrotation Yrotation
          JOINT rForeArm
          {
            OFFSET -28.1742 -1.7115 0.48768
            CHANNELS 3 Zrotation Xrotation Yrotation
            JOINT rHand
            {
              OFFSET -22.5879 0.773209 7.07136
              CHANNELS 3 Zrotation Xrotation Yrotation
              JOINT rThumb1
              {
                OFFSET -1.2192 -0.487915 3.41376
                CHANNELS 3 Zrotation Xrotation Yrotation
                JOINT rThumb2
                {
                  OFFSET -3.37035 -0.52449 3.41376
                  CHANNELS 3 Zrotation Xrotation Yrotation
                  End Site
                  {
                    OFFSET -1.78271 -1.18214 1.43049
                  }
                }
              }
              JOINT rIndex1
              {
                OFFSET -7.75947 0.938293 5.60832
                CHANNELS 3 Zrotation Xrotation Yrotation
                JOINT rIndex2
                {
                  OFFSET -2.54057 -0.884171 1.56538
                  CHANNELS 3 Zrotation Xrotation Yrotation
                  End Site
                  {
                    OFFSET -1.62519 -0.234802 1.16502
                  }
                }
              }
              JOINT rMid1
              {
                OFFSET -8.24714 1.18213 3.41376
                CHANNELS 3 Zrotation Xrotation Yrotation
                JOINT rMid2
                {
                  OFFSET -3.10165 -0.590103 1.0647
                  CHANNELS 3 Zrotation Xrotation Yrotation
                  End Site
                  {
                    OFFSET -2.48547 -0.328903 0.83742
                  }
                }
              }
              JOINT rRing1
              {
                OFFSET -8.82822 0.546677 1.51678
                CHANNELS 3 Zrotation Xrotation Yrotation
                JOINT rRing2
                {
                  OFFSET -2.60934 -0.819778 -0.0198488
                  CHANNELS 3 Zrotation Xrotation Yrotation
                  End Site
                  {
                    OFFSET -2.33842 -0.294052 0.168128
                  }
                }
              }
              JOINT rPinky1
              {
                OFFSET -8.27202 -0.0477905 -0.4584
                CHANNELS 3 Zrotation Xrotation Yrotation
                JOINT rPinky2
                {
                  OFFSET -1.82734 -0.647385 -0.700984
                  CHANNELS 3 Zrotation Xrotation Yrotation
                  End Site
                  {
                    OFFSET -1.69225 -0.51767 -0.607171
                  }
                }
              }
            }
          }
        }
      }
      JOINT lCollar
      {
        OFFSET 2.68224 19.2634 -4.8768
        CHANNELS 3 Zrotation Xrotation Yrotation
        JOINT lShldr
        {
          OFFSET 8.77824 -1.95073 1.46304
          CHANNELS 3 Zrotation Xrotation Yrotation
          JOINT lForeArm
          {
            OFFSET 28.1742 -1.7115 0.48768
            CHANNELS 3 Zrotation Xrotation Yrotation
            JOINT lHand
            {
              OFFSET 22.5879 0.773209 7.07136
              CHANNELS 3 Zrotation Xrotation Yrotation
              JOINT lThumb1
              {
                OFFSET 1.2192 -0.487915 3.41376
                CHANNELS 3 Zrotation Xrotation Yrotation
                JOINT lThumb2
                {
                  OFFSET 3.37035 -0.52449 3.41376
                  CHANNELS 3 Zrotation Xrotation Yrotation
                  End Site
                  {
                    OFFSET 1.78271 -1.18214 1.43049
                  }
                }
              }
              JOINT lIndex1
              {
                OFFSET 7.75947 0.938293 5.60832
                CHANNELS 3 Zrotation Xrotation Yrotation
                JOINT lIndex2
                {
                  OFFSET 2.54057 -0.884171 1.56538
                  CHANNELS 3 Zrotation Xrotation Yrotation
                  End Site
                  {
                    OFFSET 1.62519 -0.234802 1.16502
                  }
                }
              }
              JOINT lMid1
              {
                OFFSET 8.24714 1.18213 3.41376
                CHANNELS 3 Zrotation Xrotation Yrotation
                JOINT lMid2
                {
                  OFFSET 3.10165 -0.590103 1.0647
                  CHANNELS 3 Zrotation Xrotation Yrotation
                  End Site
                  {
                    OFFSET 2.48547 -0.328903 0.83742
                  }
                }
              }
              JOINT lRing1
              {
                OFFSET 8.82822 0.546677 1.51678
                CHANNELS 3 Zrotation Xrotation Yrotation
                JOINT lRing2
                {
                  OFFSET 2.60934 -0.819778 -0.0198488
                  CHANNELS 3 Zrotation Xrotation Yrotation
                  End Site
                  {
                    OFFSET 2.33842 -0.294052 0.168128
                  }
                }
              }
              JOINT lPinky1
              {
                OFFSET 8.27202 -0.0477905 -0.4584
                CHANNELS 3 Zrotation Xrotation Yrotation
                JOINT lPinky2
                {
                  OFFSET 1.82734 -0.647385 -0.700984
                  CHANNELS 3 Zrotation Xrotation Yrotation
                  End Site
                  {
                    OFFSET 1.69225 -0.51767 -0.607171
                  }
                }
              }
            }
          }
        }
      }
    }
  }
  JOINT rButtock
  {
    OFFSET -8.77824 4.35084 1.2192
    CHANNELS 3 Zrotation Xrotation Yrotation
    JOINT rThigh
    {
      OFFSET 0 -1.70687 -2.19456
      CHANNELS 3 Zrotation Xrotation Yrotation
      JOINT rShin
      {
        OFFSET 0 -36.8199 0.73152
        CHANNELS 3 Zrotation Xrotation Yrotation
        JOINT rFoot
        {
          OFFSET 0.73152 -45.1104 -5.12064
          CHANNELS 3 Zrotation Xrotation Yrotation
          End Site
          {
            OFFSET -1.1221 -3.69964 12.103
          }
        }
      }
    }
  }
  JOINT lButtock
  {
    OFFSET 8.77824 4.35084 1.2192
    CHANNELS 3 Zrotation Xrotation Yrotation
    JOINT lThigh
    {
      OFFSET 0 -1.70687 -2.19456
      CHANNELS 3 Zrotation Xrotation Yrotation
      JOINT lShin
      {
        OFFSET 0 -36.8199 0.73152
        CHANNELS 3 Zrotation Xrotation Yrotation
        JOINT lFoot
        {
          OFFSET -0.73152 -45.1104 -5.12064
          CHANNELS 3 Zrotation Xrotation Yrotation
          End Site
          {
            OFFSET 1.1221 -3.69964 12.103
          }
        }
      }
    }
  }
}
MOTION
Frames:	4
Frame Time:	0.00833333
66.1681 86.0534 -32.8665 4.2665 -32.9805 -4.3816 -5.14642 0.576829 4.05924 1.1647 1.09298 1.19308 -1.00049 3.28472 -2.70026 7.94106 -2.62322 -5.09105 -0.0 0.0 0.0 -0.0 0.0 0.0 -3.2126e-14 -1.29186e-13 -4.53422e-13 82.5134 62.1153 -2.45578 -27.4121 -27.8291 63.7998 -0.269151 -14.6067 -2.099 -4.62086e-10 2.93373e-09 -6.45394e-10 -7.86651e-10 5.00533e-09 -1.1188e-09 -4.62086e-10 2.93374e-09 -6.45403e-10 7.73091 5.47488 0.417314 -4.62088e-10 2.93373e-09 -6.45388e-10 2.90554 0.965183 0.102902 -4.62079e-10 2.93373e-09 -6.45384e-10 10.2786 0.731801 0.0259123 -4.62096e-10 2.93374e-09 -6.45374e-10 2.22167 -0.733487 -0.20892 -3.22206e-14 -1.29187e-13 -4.53645e-13 -65.3567 1.42845 -0.437333 22.7503 -16.9258 -45.8737 163.821 11.942 -178.297 -1.02254e-10 6.0139e-10 1.49366e-11 -1.52557e-10 9.63706e-10 9.78072e-12 -1.02257e-10 6.01363e-10 1.49389e-11 -7.73091 5.47488 -0.417314 -1.02253e-10 6.01362e-10 1.49329e-11 -2.90554 0.965183 -0.102902 -1.02265e-10 6.01363e-10 1.49368e-11 -10.2786 0.731801 -0.0259123 -1.02253e-10 6.01386e-10 1.49295e-11 -2.22167 -0.733487 0.20892 -2.03217e-16 0.0 -3.88251e-19 -5.99761 -7.00133 14.3065 -0.0472526 24.1057 0.426865 -1.67125 -9.14591 -6.02905 2.03217e-16 0.0 3.88251e-19 0.600462 -12.9472 -5.97462 0.087817 20.0177 -0.438989 5.97115 -10.9746 19.8267
66.128 86.0484 -33.0656 4.9638 -33.6985 -4.8863 -4.99006 0.617787 4.44107 1.04634 1.04789 1.30338 -0.23676 3.11531 -2.38042 7.31445 -2.25764 -4.66724 -0.0 0.0 0.0 -0.0 0.0 0.0 -6.888e-14 -1.46886e-13 -4.35587e-13 80.9108 61.5808 0.288146 -27.2628 -27.2587 62.8853 -0.267841 -14.575 -2.09421 -3.32055e-10 1.57521e-09 -5.21735e-10 -5.63648e-10 2.66098e-09 -9.0419e-10 -3.32054e-10 1.57521e-09 -5.21748e-10 7.73091 5.47488 0.417314 -3.32057e-10 1.57521e-09 -5.21729e-10 2.90554 0.965183 0.102902 -3.32048e-10 1.57521e-09 -5.21723e-10 10.2786 0.731801 0.0259123 -3.32067e-10 1.57522e-09 -5.21713e-10 2.22167 -0.733487 -0.20892 -6.8932e-14 -1.46887e-13 -4.35835e-13 -65.2017 1.77816 -0.488828 22.6168 -16.7123 -45.4908 163.83 11.6667 -178.337 -7.48671e-11 2.14447e-10 8.32733e-11 -1.09168e-10 3.44273e-10 1.22621e-10 -7.48691e-11 2.14415e-10 8.32765e-11 -7.73091 5.47488 -0.417314 -7.48654e-11 2.14415e-10 8.32701e-11 -2.90554 0.965183 -0.102902 -7.48777e-11 2.14415e-10 8.32733e-11 -10.2786 0.731801 -0.0259123 -7.48663e-11 2.14443e-10 8.32669e-11 -2.22167 -0.733487 0.20892 -2.03217e-16 0.0 -3.88251e-19 -5.90553 -7.10582 14.2369 -0.0436631 23.8048 0.419071 -1.59184 -9.31986 -5.61979 2.03217e-16 0.0 3.88251e-19 0.803067 -12.6575 -5.9603 0.0851886 19.6892 -0.438838 6.24355 -11.1956 20.4754
66.0558 86.0096 -33.4289 5.2351 -34.354 -5.039 -4.80635 0.701321 4.81264 0.927848 0.945095 1.41066 0.572634 2.99841 -2.05633 6.67231 -1.80045 -4.25259 -0.0 0.0 0.0 -0.0 0.0 0.0 -7.15557e-14 -1.41702e-13 -2.66154e-14 79.3865 60.9534 3.01714 -27.099 -26.6761 61.954 -0.26128 -14.4031 -2.06839 -2.03449e-11 -1.90949e-09 -1.02617e-09 -2.15709e-11 -3.39121e-09 -1.77678e-09 -2.03438e-11 -1.90949e-09 -1.02618e-09 7.73091 5.47488 0.417314 -2.03471e-11 -1.90949e-09 -1.02616e-09 2.90554 0.965183 0.102902 -2.0338e-11 -1.90949e-09 -1.02616e-09 10.2786 0.731801 0.0259123 -2.03576e-11 -1.90948e-09 -1.02614e-09 2.22167 -0.733487 -0.20892 -7.15759e-14 -1.41703e-13 -2.68833e-14 -65.0206 2.20425 -0.580779 22.4576 -16.4616 -45.038 163.845 11.1635 -178.411 -2.36939e-10 -1.00865e-09 6.55534e-10 -3.22847e-10 -1.83988e-09 1.06163e-09 -2.36941e-10 -1.00867e-09 6.55538e-10 -7.73091 5.47488 -0.417314 -2.36937e-10 -1.00867e-09 6.55532e-10 -2.90554 0.965183 -0.102902 -2.36949e-10 -1.00867e-09 6.55533e-10 -10.2786 0.731801 -0.0259123 -2.36938e-10 -1.00865e-09 6.55527e-10 -2.22167 -0.733487 0.20892 -2.03217e-16 0.0 -3.88251e-19 -5.70914 -7.18196 14.2524 -0.0404497 23.5231 0.412236 -1.54055 -9.48218 -5.34735 2.03217e-16 0.0 3.88251e-19 1.08903 -12.4557 -5.86077 0.0833656 19.4762 -0.439576 6.47529 -11.3782 21.0146
65.8808 85.9701 -33.9066 4.8678 -35.153 -4.9312 -4.58931 0.810177 5.18126 0.801863 0.801269 1.51712 1.42207 2.9246 -1.72505 6.01448 -1.26888 -3.84055 -0.0 0.0 0.0 -0.0 0.0 0.0 -5.70059e-14 -1.24767e-13 6.40416e-13 77.9563 60.2338 5.71204 -26.9272 -26.0978 61.0216 -0.251096 -14.1263 -2.02695 4.17464e-10 -6.87932e-09 -1.91359e-09 7.41391e-10 -1.20302e-08 -3.31233e-09 4.17466e-10 -6.87932e-09 -1.9136e-09 7.73091 5.47488 0.417314 4.17461e-10 -6.87931e-09 -1.91359e-09 2.90554 0.965183 0.102902 4.1747e-10 -6.87931e-09 -1.91359e-09 10.2786 0.731801 0.0259123 4.1745e-10 -6.87931e-09 -1.91357e-09 2.22167 -0.733487 -0.20892 -5.69978e-14 -1.24767e-13 6.4013e-13 -64.8155 2.68464 -0.701933 22.2657 -16.1629 -44.507 163.863 10.4866 -178.509 -5.14412e-10 -2.79989e-09 1.55259e-09 -6.92391e-10 -5.0732e-09 2.5331e-09 -5.14414e-10 -2.79991e-09 1.55259e-09 -7.73091 5.47488 -0.417314 -5.1441e-10 -2.79991e-09 1.55259e-09 -2.90554 0.965183 -0.102902 -5.14422e-10 -2.79991e-09 1.55258e-09 -10.2786 0.731801 -0.0259123 -5.14411e-10 -2.79989e-09 1.55258e-09 -2.22167 -0.733487 0.20892 -2.03217e-16 0.0 -3.88251e-19 -5.43404 -7.24419 14.2989 -0.0376109 23.2575 0.406005 -1.50711 -9.64559 -5.15607 2.03217e-16 0.0 3.88251e-19 1.44258 -12.3058 -5.7068 0.0820048 19.3333 -0.440712 6.68117 -11.5333 21.4892
